<?xml version="1.0" encoding="utf-8"?>
<!-- Generator: Adobe Illustrator 16.0.4, SVG Export Plug-In . SVG Version: 6.00 Build 0)  -->
<!DOCTYPE svg PUBLIC "-//W3C//DTD SVG 1.1//EN" "http://www.w3.org/Graphics/SVG/1.1/DTD/svg11.dtd">
<svg version="1.1" id="Layer_1" xmlns="http://www.w3.org/2000/svg" xmlns:xlink="http://www.w3.org/1999/xlink" x="0px" y="0px"
	 width="786px" height="197px" viewBox="0 0 786 197" enable-background="new 0 0 786 197" xml:space="preserve">
<g>
	<g enable-background="new    ">
		<path fill="#7A7A7A" d="M234.896,141.708c1.897,0,3.716,0.31,5.342,0.891v-7.819h1.896v20.478c0,1.433-0.658,5.846-7.51,5.846
			c-3.174,0-8.323-1.277-8.323-9.871C226.302,143.373,230.871,141.708,234.896,141.708z M234.625,159.322
			c4.181,0,5.613-2.014,5.613-3.987v-10.801c-1.587-0.658-3.445-1.045-5.342-1.045c-4.104,0-6.658,1.974-6.658,7.742
			C228.238,158.432,231.954,159.322,234.625,159.322z"/>
		<path fill="#7A7A7A" d="M254.834,135.669h2.129v2.865h-2.129V135.669z M254.951,142.018h1.897v18.775h-1.897V142.018z"/>
		<path fill="#7A7A7A" d="M284.373,147.36V161.8c0,2.98-1.355,6.387-8.13,6.387c-2.09,0-3.832-0.271-5.187-0.619v-1.819
			c1.239,0.31,2.942,0.619,4.955,0.619c5.574,0,6.465-2.322,6.465-4.49v-2.361c-1.665,0.619-3.445,0.968-5.226,0.968
			c-3.794,0-8.362-1.471-8.362-9.214c0-8.361,5.033-9.6,8.129-9.6C283.792,141.67,284.373,146.044,284.373,147.36z M282.476,147.282
			c0-1.819-1.316-3.832-5.458-3.832c-2.555,0-6.194,0.852-6.194,7.819c0,6.504,3.368,7.433,6.426,7.433
			c1.819,0,3.562-0.387,5.226-1.122V147.282z"/>
		<path fill="#7A7A7A" d="M296.877,135.669h2.129v2.865h-2.129V135.669z M296.994,142.018h1.897v18.775h-1.897V142.018z"/>
		<path fill="#7A7A7A" d="M320.453,158.896v1.819c-0.735,0.193-1.587,0.348-2.516,0.348c-1.433,0-4.917-0.154-4.917-4.839v-12.504
			h-3.02v-1.703h3.02v-5.303h1.936v5.303h5.419v1.703h-5.419v12.427c0,2.555,1.471,3.136,3.213,3.136
			C319.06,159.283,319.795,159.128,320.453,158.896z"/>
		<path fill="#7A7A7A" d="M346.082,149.566v5.729c0,5.11-5.226,5.768-7.587,5.768c-2.439,0-7.82-0.773-7.82-5.845
			c0-5.846,7.239-6.078,8.981-6.078c2.517,0,3.871,0.271,4.491,0.388c0-3.949-1.936-5.923-6.194-5.923
			c-2.439,0-4.452,0.58-5.342,0.852v-1.858c1.394-0.465,3.329-0.891,5.458-0.891C343.643,141.708,346.082,144.457,346.082,149.566z
			 M344.185,151.27c-0.503-0.077-2.207-0.348-4.761-0.348c-2.362,0-6.852,0.542-6.852,4.297c0,3.445,3.6,4.104,5.923,4.104
			c2.284,0,5.69-0.62,5.69-4.026V151.27z"/>
		<path fill="#7A7A7A" d="M358.781,160.793v-26.014h1.936v26.014H358.781z"/>
		<path fill="#7A7A7A" d="M401.443,159.244c1.78,0,3.6-0.348,5.264-1.006v1.857c-1.742,0.658-3.6,1.007-5.458,1.007
			c-3.987,0-8.787-1.626-8.787-9.717c0-8.052,4.8-9.716,8.787-9.716c1.858,0,3.716,0.387,5.458,1.006v1.858
			c-1.664-0.619-3.483-1.007-5.264-1.007c-4.259,0-7.085,1.975-7.085,7.858C394.358,157.309,397.185,159.244,401.443,159.244z"/>
		<path fill="#7A7A7A" d="M419.793,144.728v16.065h-1.896v-17.304c1.084-0.465,4.529-1.742,8.826-1.781v1.858
			C423.781,143.644,421.264,144.302,419.793,144.728z"/>
		<path fill="#7A7A7A" d="M452.506,151.502c0,0.852-0.039,0.968-0.039,1.007h-14.439c0.039,0.658,0.155,1.2,0.349,1.664
			c0.542,3.64,3.097,5.033,6.735,5.033c2.285,0,4.568-0.465,6.117-1.316v1.975c-1.742,0.812-4.143,1.199-6.271,1.199
			c-4.258,0-8.904-1.819-8.904-9.29c0-2.981,0.93-10.065,8.362-10.065C452.428,141.708,452.506,150.264,452.506,151.502z
			 M438.027,150.806h12.504c0-0.93-0.232-7.278-6.232-7.278C440.234,143.527,438.221,146.237,438.027,150.806z"/>
		<path fill="#7A7A7A" d="M478.793,149.566v5.729c0,5.11-5.227,5.768-7.588,5.768c-2.439,0-7.82-0.773-7.82-5.845
			c0-5.846,7.24-6.078,8.981-6.078c2.517,0,3.871,0.271,4.491,0.388c0-3.949-1.936-5.923-6.194-5.923
			c-2.438,0-4.452,0.58-5.343,0.852v-1.858c1.395-0.465,3.33-0.891,5.459-0.891C476.354,141.708,478.793,144.457,478.793,149.566z
			 M476.896,151.27c-0.503-0.077-2.206-0.348-4.761-0.348c-2.362,0-6.853,0.542-6.853,4.297c0,3.445,3.601,4.104,5.923,4.104
			c2.283,0,5.69-0.62,5.69-4.026V151.27z"/>
		<path fill="#7A7A7A" d="M499.272,158.896v1.819c-0.735,0.193-1.587,0.348-2.517,0.348c-1.432,0-4.916-0.154-4.916-4.839v-12.504
			h-3.02v-1.703h3.02v-5.303h1.936v5.303h5.42v1.703h-5.42v12.427c0,2.555,1.471,3.136,3.213,3.136
			C497.879,159.283,498.614,159.128,499.272,158.896z"/>
		<path fill="#7A7A7A" d="M510.462,135.669h2.129v2.865h-2.129V135.669z M510.577,142.018h1.897v18.775h-1.897V142.018z"/>
		<path fill="#7A7A7A" d="M538.645,142.018h2.052l-7.587,18.775h-1.936c-2.556-6.232-5.033-12.504-7.588-18.775h2.052l6.504,16.375
			L538.645,142.018z"/>
		<path fill="#7A7A7A" d="M566.596,151.502c0,0.852-0.038,0.968-0.038,1.007h-14.439c0.038,0.658,0.154,1.2,0.349,1.664
			c0.541,3.64,3.097,5.033,6.735,5.033c2.284,0,4.568-0.465,6.116-1.316v1.975c-1.742,0.812-4.142,1.199-6.271,1.199
			c-4.258,0-8.903-1.819-8.903-9.29c0-2.981,0.929-10.065,8.361-10.065C566.519,141.708,566.596,150.264,566.596,151.502z
			 M552.118,150.806h12.504c0-0.93-0.232-7.278-6.232-7.278C554.324,143.527,552.312,146.237,552.118,150.806z"/>
		<path fill="#7A7A7A" d="M612.122,149.566v5.729c0,5.11-5.226,5.768-7.587,5.768c-2.438,0-7.819-0.773-7.819-5.845
			c0-5.846,7.238-6.078,8.98-6.078c2.517,0,3.871,0.271,4.49,0.388c0-3.949-1.936-5.923-6.193-5.923
			c-2.438,0-4.452,0.58-5.342,0.852v-1.858c1.394-0.465,3.329-0.891,5.458-0.891C609.684,141.708,612.122,144.457,612.122,149.566z
			 M610.226,151.27c-0.503-0.077-2.206-0.348-4.762-0.348c-2.361,0-6.852,0.542-6.852,4.297c0,3.445,3.6,4.104,5.923,4.104
			c2.284,0,5.69-0.62,5.69-4.026V151.27z"/>
		<path fill="#7A7A7A" d="M639.223,147.36V161.8c0,2.98-1.355,6.387-8.13,6.387c-2.09,0-3.832-0.271-5.188-0.619v-1.819
			c1.239,0.31,2.942,0.619,4.955,0.619c5.575,0,6.465-2.322,6.465-4.49v-2.361c-1.664,0.619-3.445,0.968-5.226,0.968
			c-3.794,0-8.361-1.471-8.361-9.214c0-8.361,5.032-9.6,8.129-9.6C638.642,141.67,639.223,146.044,639.223,147.36z M637.325,147.282
			c0-1.819-1.315-3.832-5.458-3.832c-2.555,0-6.193,0.852-6.193,7.819c0,6.504,3.367,7.433,6.426,7.433
			c1.819,0,3.562-0.387,5.226-1.122V147.282z"/>
		<path fill="#7A7A7A" d="M667.406,151.502c0,0.852-0.038,0.968-0.038,1.007h-14.439c0.038,0.658,0.154,1.2,0.349,1.664
			c0.541,3.64,3.097,5.033,6.735,5.033c2.284,0,4.568-0.465,6.116-1.316v1.975c-1.742,0.812-4.142,1.199-6.271,1.199
			c-4.258,0-8.903-1.819-8.903-9.29c0-2.981,0.929-10.065,8.361-10.065C667.329,141.708,667.406,150.264,667.406,151.502z
			 M652.929,150.806h12.504c0-0.93-0.232-7.278-6.232-7.278C655.135,143.527,653.122,146.237,652.929,150.806z"/>
		<path fill="#7A7A7A" d="M694.391,148.561v12.232h-1.936v-12.232c0-2.749-1.162-4.955-5.536-4.955c-2.284,0-4.374,0.58-5.962,1.199
			v15.988h-1.896v-17.11c1.316-0.697,4.413-2.013,8.052-2.013C691.72,141.67,694.391,143.992,694.391,148.561z"/>
		<path fill="#7A7A7A" d="M715.373,159.244c1.781,0,3.601-0.348,5.266-1.006v1.857c-1.742,0.658-3.601,1.007-5.459,1.007
			c-3.987,0-8.787-1.626-8.787-9.717c0-8.052,4.8-9.716,8.787-9.716c1.858,0,3.717,0.387,5.459,1.006v1.858
			c-1.665-0.619-3.484-1.007-5.266-1.007c-4.258,0-7.084,1.975-7.084,7.858C708.289,157.309,711.115,159.244,715.373,159.244z"/>
		<path fill="#7A7A7A" d="M745.144,142.018h2.052l-7.858,21.021c-1.549,4.143-3.794,5.148-5.729,5.148
			c-0.697,0-1.394-0.193-1.78-0.348v-1.781c0.387,0.193,1.122,0.349,1.587,0.349c2.941,0,3.678-3.329,4.8-5.613l-7.316-18.775h2.091
			c2.013,5.42,4.104,10.84,6.155,16.259L745.144,142.018z"/>
	</g>
	<g enable-background="new    ">
		<path fill="#7A7A7A" d="M288.154,46.025c15.953,0,25.007,9.916,25.007,22.635s-9.054,22.636-25.007,22.636H231.35v28.456h-4.85
			V46.025H288.154z M288.37,86.877c13.582,0,19.833-9.162,19.833-18.217c0-9.162-6.251-18.216-19.833-18.216h-57.02v36.433H288.37z"
			/>
		<path fill="#7A7A7A" d="M409.745,119.752V85.044H333v34.708h-4.85V46.025H333v34.6h76.745v-34.6h4.851v73.727H409.745z"/>
		<path fill="#7A7A7A" d="M441.01,46.025v73.727h-4.742V46.025H441.01z"/>
	</g>
	<g enable-background="new    ">
		<path fill="#7A7A7A" d="M460.952,46.025h60.146c25.654,0,35.139,12.503,35.139,36.863c0,24.575-9.593,36.863-35.139,36.863
			h-60.146V46.025z M521.098,57.559h-48.289v50.553h48.289c18.863,0,22.959-8.623,22.959-25.223
			C544.057,66.396,539.961,57.559,521.098,57.559z"/>
	</g>
	<g enable-background="new    ">
		<path fill="#7A7A7A" d="M603.023,57.343c-16.383,0-22.204,6.898-23.066,20.264h79.655v10.671h-79.655
			c0.862,13.259,6.684,20.049,23.066,20.049h58.098v11.426h-58.098c-25.653,0-35.139-12.396-35.139-36.863
			s9.485-36.863,35.139-36.863h58.098v11.317H603.023z"/>
	</g>
	<g enable-background="new    ">
		<path fill="#7A7A7A" d="M776.138,46.025l-29.534,60.361c-4.311,8.73-9.916,14.443-21.449,14.443
			c-11.426,0-17.031-5.605-21.342-14.443L674.17,46.025h13.043l28.455,57.235c2.049,4.096,4.635,6.251,9.486,6.251
			c4.85,0,7.545-2.155,9.593-6.251l28.349-57.235H776.138z"/>
	</g>
</g>
<g>
	<path fill="#7A7A7A" d="M180.841,98.027c0,47.4-38.437,85.831-85.834,85.831S9.179,145.427,9.179,98.027
		c0-47.405,38.431-85.832,85.828-85.832S180.841,50.622,180.841,98.027z"/>
	<g>
		<path fill="#2F2F2F" d="M95.014,46.951c-3.074,0-5.566,2.48-5.566,5.561v57.958c0,3.062,2.492,5.568,5.566,5.568
			c3.059,0,5.564-2.506,5.564-5.568V58.567c14.839,2.638,26.166,15.636,26.166,31.228c0,17.489-14.25,31.719-31.73,31.719
			c-17.481,0-31.721-14.229-31.721-31.719c0-9.866,4.479-19,12.271-25.064c2.426-1.887,2.877-5.383,0.977-7.809
			c-1.872-2.422-5.368-2.863-7.785-0.979C58.2,64.129,52.154,76.466,52.154,89.795c0,23.627,19.223,42.848,42.859,42.848
			c23.622,0,42.846-19.221,42.846-42.848S118.636,46.951,95.014,46.951z"/>
		<g>
			<path fill="#2F2F2F" d="M95.014,164.448c-3.074,0-5.566-3.197-5.566-7.164v-11.92c0-3.951,2.492-7.164,5.566-7.164
				c3.059,0,5.564,3.213,5.564,7.164v11.92C100.578,161.251,98.072,164.448,95.014,164.448z"/>
		</g>
	</g>
</g>
</svg>
